<svg xmlns="http://www.w3.org/2000/svg" xmlns:xlink="http://www.w3.org/1999/xlink" width="1920" zoomAndPan="magnify" viewBox="0 0 1440 809.999993" height="1080" preserveAspectRatio="xMidYMid meet" version="1.0"><defs><g/><clipPath id="4a2415f815"><path d="M 660 320.25 L 780 320.25 L 780 352 L 660 352 Z M 660 320.25 " clip-rule="nonzero"/></clipPath><clipPath id="99b3fe797b"><path d="M 697 364 L 758 364 L 758 435.75 L 697 435.75 Z M 697 364 " clip-rule="nonzero"/></clipPath></defs><rect x="-144" width="1728" fill="#ffffff" y="-80.999999" height="971.999992" fill-opacity="1"/><rect x="-144" width="1728" fill="#ffffff" y="-80.999999" height="971.999992" fill-opacity="1"/><g clip-path="url(#4a2415f815)"><path fill="#ffffff" d="M 773.386719 320.25 C 770.390625 320.25 767.960938 322.21875 767.117188 324.941406 L 763.09375 324.941406 C 752.332031 324.941406 743.441406 333.199219 742.597656 343.894531 C 739.605469 346.238281 735.863281 347.554688 731.929688 347.460938 C 728.75 345.207031 725.101562 343.988281 721.167969 343.707031 C 720.515625 343.707031 719.765625 343.707031 719.109375 343.707031 C 715.179688 343.894531 711.53125 345.207031 708.347656 347.460938 C 704.417969 347.554688 700.675781 346.238281 697.679688 343.894531 C 696.652344 333.199219 687.761719 324.941406 677 324.941406 L 672.976562 324.941406 C 672.132812 322.21875 669.703125 320.25 666.707031 320.25 C 663.058594 320.25 660.15625 323.160156 660.15625 326.816406 C 660.15625 330.476562 663.058594 333.386719 666.707031 333.386719 C 669.703125 333.386719 672.132812 331.414062 672.976562 328.695312 L 677 328.695312 C 686.078125 328.695312 693.46875 335.824219 693.84375 344.925781 C 693.84375 345.488281 694.125 345.957031 694.5 346.238281 C 698.523438 349.710938 703.671875 351.492188 708.910156 351.210938 C 709.191406 351.210938 709.472656 351.117188 709.660156 351.023438 C 709.753906 350.929688 709.847656 350.929688 709.941406 350.835938 C 712.558594 348.867188 715.742188 347.648438 719.015625 347.554688 C 719.015625 347.554688 719.109375 347.554688 719.109375 347.554688 C 719.671875 347.554688 720.234375 347.554688 720.796875 347.554688 C 720.796875 347.554688 720.796875 347.554688 720.890625 347.554688 C 724.257812 347.742188 727.441406 348.867188 730.058594 350.835938 C 730.246094 351.023438 730.527344 351.117188 730.808594 351.210938 C 730.902344 351.210938 730.996094 351.210938 731.089844 351.210938 C 731.464844 351.210938 731.835938 351.210938 732.117188 351.210938 C 737.078125 351.210938 741.757812 349.429688 745.5 346.238281 C 745.96875 345.863281 746.15625 345.300781 746.15625 344.738281 C 746.625 335.730469 753.921875 328.789062 763 328.789062 L 767.023438 328.789062 C 767.867188 331.507812 770.296875 333.480469 773.292969 333.480469 C 776.941406 333.480469 779.84375 330.570312 779.84375 326.910156 C 779.84375 323.253906 777.035156 320.25 773.386719 320.25 Z M 666.707031 329.632812 C 665.117188 329.632812 663.898438 328.414062 663.898438 326.816406 C 663.898438 325.222656 665.117188 324.003906 666.707031 324.003906 C 668.296875 324.003906 669.515625 325.222656 669.515625 326.816406 C 669.515625 328.414062 668.296875 329.632812 666.707031 329.632812 Z M 773.386719 329.632812 C 771.796875 329.632812 770.578125 328.414062 770.578125 326.816406 C 770.578125 325.222656 771.796875 324.003906 773.386719 324.003906 C 774.976562 324.003906 776.195312 325.222656 776.195312 326.816406 C 776.195312 328.414062 774.976562 329.632812 773.386719 329.632812 Z M 773.386719 329.632812 " fill-opacity="1" fill-rule="nonzero"/></g><path fill="#ffffff" d="M 738.855469 372.699219 C 739.792969 370.726562 740.351562 368.476562 740.539062 366.226562 L 757.757812 366.226562 C 758.601562 368.945312 761.035156 370.917969 764.027344 370.917969 C 767.679688 370.917969 770.578125 368.007812 770.578125 364.347656 C 770.578125 360.6875 767.679688 357.78125 764.027344 357.78125 C 761.035156 357.78125 758.601562 359.75 757.757812 362.472656 L 736.890625 362.472656 L 736.890625 364.347656 C 736.890625 367.632812 735.957031 370.726562 734.363281 373.261719 C 734.738281 373.355469 735.113281 373.542969 735.394531 373.730469 C 736.515625 373.167969 737.640625 372.886719 738.855469 372.699219 Z M 764.027344 361.535156 C 765.621094 361.535156 766.835938 362.753906 766.835938 364.347656 C 766.835938 365.941406 765.621094 367.164062 764.027344 367.164062 C 762.4375 367.164062 761.222656 365.941406 761.222656 364.347656 C 761.222656 362.753906 762.4375 361.535156 764.027344 361.535156 Z M 764.027344 361.535156 " fill-opacity="1" fill-rule="nonzero"/><path fill="#ffffff" d="M 773.386719 395.3125 C 770.390625 395.3125 767.960938 397.28125 767.117188 400.003906 L 763.09375 400.003906 C 762.34375 400.003906 761.503906 399.910156 760.753906 399.816406 L 760.566406 403.566406 C 761.410156 403.660156 762.15625 403.753906 763 403.753906 L 767.023438 403.753906 C 767.867188 406.476562 770.296875 408.445312 773.292969 408.445312 C 776.941406 408.445312 779.84375 405.539062 779.84375 401.878906 C 779.84375 398.21875 777.035156 395.3125 773.386719 395.3125 Z M 773.386719 404.695312 C 771.796875 404.695312 770.578125 403.472656 770.578125 401.878906 C 770.578125 400.285156 771.796875 399.0625 773.386719 399.0625 C 774.976562 399.0625 776.195312 400.285156 776.195312 401.878906 C 776.195312 403.472656 774.976562 404.695312 773.386719 404.695312 Z M 773.386719 404.695312 " fill-opacity="1" fill-rule="nonzero"/><g clip-path="url(#99b3fe797b)"><path fill="#ffffff" d="M 730.433594 376.359375 C 729.589844 376.359375 728.84375 376.453125 728.09375 376.734375 L 728.09375 371.855469 C 728.09375 367.726562 724.726562 364.347656 720.609375 364.347656 C 716.492188 364.347656 713.121094 367.726562 713.121094 371.855469 L 713.121094 397.65625 L 710.78125 394.84375 C 709.378906 393.058594 707.226562 392.027344 704.980469 392.027344 C 703.203125 392.027344 701.519531 392.683594 700.207031 393.808594 C 697.121094 396.4375 696.652344 401.128906 699.273438 404.316406 L 713.402344 421.769531 L 713.683594 423.269531 C 714.804688 430.496094 720.890625 435.75 728.1875 435.75 L 741.476562 435.75 C 749.429688 435.75 755.886719 429.464844 756.167969 421.488281 L 757.476562 389.773438 C 757.570312 387.710938 756.824219 385.742188 755.417969 384.332031 C 754.015625 382.832031 752.144531 382.082031 750.085938 382.082031 C 749.242188 382.082031 748.402344 382.269531 747.652344 382.550781 C 746.996094 379.078125 744.003906 376.453125 740.445312 376.453125 L 740.351562 376.453125 C 738.480469 376.453125 736.796875 377.109375 735.488281 378.328125 C 734.175781 377.203125 732.492188 376.453125 730.621094 376.453125 L 730.433594 376.453125 Z M 734.175781 383.769531 L 734.175781 395.3125 L 736.609375 395.125 L 736.609375 383.769531 C 736.609375 381.707031 738.199219 380.109375 740.257812 380.109375 L 740.351562 380.109375 C 742.320312 380.109375 744.003906 381.707031 744.003906 383.769531 L 744.003906 394.652344 L 746.4375 394.464844 L 746.4375 389.398438 C 746.4375 387.335938 748.027344 385.742188 750.085938 385.742188 C 752.144531 385.742188 753.828125 387.429688 753.734375 389.492188 L 752.425781 421.207031 C 752.238281 427.117188 747.371094 431.902344 741.476562 431.902344 L 728.09375 431.902344 C 722.667969 431.902344 718.082031 427.960938 717.238281 422.613281 L 716.863281 420.082031 L 702.171875 401.878906 C 700.863281 400.285156 701.144531 397.9375 702.640625 396.625 C 703.296875 396.0625 704.230469 395.78125 705.074219 395.78125 C 706.195312 395.78125 707.226562 396.25 707.976562 397.1875 L 716.957031 408.257812 L 716.957031 371.855469 C 716.957031 369.789062 718.644531 368.101562 720.703125 368.101562 C 722.761719 368.101562 724.445312 369.789062 724.445312 371.855469 L 724.445312 395.96875 L 726.878906 395.78125 L 726.878906 383.769531 C 726.878906 381.707031 728.46875 380.109375 730.527344 380.109375 L 730.621094 380.109375 C 732.492188 380.109375 734.175781 381.707031 734.175781 383.769531 Z M 734.175781 383.769531 " fill-opacity="1" fill-rule="nonzero"/></g><path fill="#ffffff" d="M 720.046875 351.210938 C 712.839844 351.210938 706.945312 357.125 706.945312 364.347656 C 706.945312 367.164062 707.882812 369.789062 709.378906 371.949219 L 709.378906 371.761719 C 709.378906 369.695312 709.941406 367.820312 710.875 366.226562 C 710.78125 365.566406 710.6875 365.003906 710.6875 364.253906 C 710.6875 359.09375 714.898438 354.871094 720.046875 354.871094 C 725.195312 354.871094 729.40625 359.09375 729.40625 364.253906 C 729.40625 364.441406 729.40625 364.628906 729.40625 364.816406 C 730.621094 366.414062 731.464844 368.289062 731.742188 370.257812 C 732.679688 368.476562 733.242188 366.414062 733.242188 364.253906 C 733.148438 357.125 727.253906 351.210938 720.046875 351.210938 Z M 720.046875 351.210938 " fill-opacity="1" fill-rule="nonzero"/><path fill="#ffffff" d="M 693.84375 384.050781 C 693.375 393.058594 686.078125 400.003906 677 400.003906 L 672.976562 400.003906 C 672.132812 397.28125 669.703125 395.3125 666.707031 395.3125 C 663.058594 395.3125 660.15625 398.21875 660.15625 401.878906 C 660.15625 405.539062 663.058594 408.445312 666.707031 408.445312 C 669.703125 408.445312 672.132812 406.476562 672.976562 403.753906 L 677 403.753906 C 687.761719 403.753906 696.652344 395.5 697.496094 384.800781 C 700.488281 382.457031 704.230469 381.144531 708.164062 381.238281 C 708.441406 381.425781 708.722656 381.613281 709.003906 381.800781 C 709.003906 381.800781 709.097656 381.800781 709.097656 381.894531 C 709.191406 381.988281 709.285156 381.988281 709.378906 382.082031 L 709.378906 377.484375 C 705.636719 374.386719 703.203125 369.695312 703.203125 364.441406 L 703.203125 362.566406 L 682.335938 362.566406 C 681.492188 359.84375 679.058594 357.875 676.066406 357.875 C 672.414062 357.875 669.515625 360.78125 669.515625 364.441406 C 669.515625 368.101562 672.414062 371.011719 676.066406 371.011719 C 679.058594 371.011719 681.492188 369.039062 682.335938 366.320312 L 699.554688 366.320312 C 699.925781 370.726562 701.707031 374.667969 704.417969 377.859375 C 700.769531 378.515625 697.308594 380.109375 694.40625 382.550781 C 694.03125 382.832031 693.84375 383.394531 693.84375 384.050781 Z M 666.707031 404.695312 C 665.117188 404.695312 663.898438 403.472656 663.898438 401.878906 C 663.898438 400.285156 665.117188 399.0625 666.707031 399.0625 C 668.296875 399.0625 669.515625 400.285156 669.515625 401.878906 C 669.515625 403.472656 668.296875 404.695312 666.707031 404.695312 Z M 676.066406 367.164062 C 674.472656 367.164062 673.257812 365.941406 673.257812 364.347656 C 673.257812 362.753906 674.472656 361.535156 676.066406 361.535156 C 677.65625 361.535156 678.871094 362.753906 678.871094 364.347656 C 678.871094 365.941406 677.65625 367.164062 676.066406 367.164062 Z M 676.066406 367.164062 " fill-opacity="1" fill-rule="nonzero"/><g fill="#ffffff" fill-opacity="1"><g transform="translate(574.921849, 485.091332)"><g><path d="M 28.625 -23.6875 L 28.625 -21.21875 L 16.78125 -21.21875 L 16.78125 0 L 13.8125 0 L 13.8125 -21.21875 L 1.96875 -21.21875 L 1.96875 -23.6875 Z M 28.625 -23.6875 "/></g></g></g><g fill="#ffffff" fill-opacity="1"><g transform="translate(605.516941, 485.091332)"><g><path d="M 17.265625 -11.984375 C 17.265625 -12.722656 17.210938 -13.335938 17.109375 -13.828125 C 17.003906 -14.316406 16.75 -14.707031 16.34375 -15 C 15.945312 -15.289062 15.351562 -15.492188 14.5625 -15.609375 C 13.78125 -15.734375 12.707031 -15.796875 11.34375 -15.796875 C 10.019531 -15.796875 8.941406 -15.675781 8.109375 -15.4375 C 7.273438 -15.207031 6.617188 -14.878906 6.140625 -14.453125 C 5.671875 -14.035156 5.351562 -13.535156 5.1875 -12.953125 C 5.019531 -12.367188 4.9375 -11.71875 4.9375 -11 L 4.9375 0 L 1.96875 0 L 1.96875 -17.765625 L 4.9375 -17.765625 L 4.9375 -14.9375 C 5.039062 -15.257812 5.226562 -15.613281 5.5 -16 C 5.78125 -16.382812 6.203125 -16.742188 6.765625 -17.078125 C 7.328125 -17.410156 8.054688 -17.6875 8.953125 -17.90625 C 9.859375 -18.132812 10.984375 -18.25 12.328125 -18.25 C 13.867188 -18.25 15.125 -18.113281 16.09375 -17.84375 C 17.0625 -17.570312 17.816406 -17.171875 18.359375 -16.640625 C 18.898438 -16.109375 19.265625 -15.453125 19.453125 -14.671875 C 19.640625 -13.890625 19.734375 -12.992188 19.734375 -11.984375 Z M 17.265625 -11.984375 "/></g></g></g><g fill="#ffffff" fill-opacity="1"><g transform="translate(625.255709, 485.091332)"><g><path d="M 19.65625 -2.4375 C 19.625 -2.3125 19.394531 -2.003906 18.96875 -1.515625 C 18.65625 -1.140625 18.238281 -0.8125 17.71875 -0.53125 C 17.207031 -0.25 16.523438 -0.03125 15.671875 0.125 C 14.816406 0.289062 13.6875 0.375 12.28125 0.375 C 10.425781 0.375 8.835938 0.273438 7.515625 0.078125 C 6.203125 -0.109375 5.128906 -0.398438 4.296875 -0.796875 C 3.460938 -1.191406 2.851562 -1.695312 2.46875 -2.3125 C 2.082031 -2.925781 1.890625 -3.660156 1.890625 -4.515625 C 1.890625 -5.410156 1.992188 -6.164062 2.203125 -6.78125 C 2.421875 -7.40625 2.734375 -7.925781 3.140625 -8.34375 C 3.546875 -8.769531 4.035156 -9.101562 4.609375 -9.34375 C 5.179688 -9.582031 5.832031 -9.757812 6.5625 -9.875 C 7.300781 -10 8.109375 -10.078125 8.984375 -10.109375 C 9.859375 -10.140625 10.789062 -10.15625 11.78125 -10.15625 C 13.1875 -10.15625 14.363281 -10.097656 15.3125 -9.984375 C 16.257812 -9.867188 17.03125 -9.71875 17.625 -9.53125 C 18.226562 -9.351562 18.679688 -9.160156 18.984375 -8.953125 C 19.296875 -8.753906 19.519531 -8.566406 19.65625 -8.390625 C 19.65625 -9.535156 19.601562 -10.515625 19.5 -11.328125 C 19.40625 -12.140625 19.25 -12.816406 19.03125 -13.359375 C 18.8125 -13.910156 18.523438 -14.347656 18.171875 -14.671875 C 17.828125 -14.992188 17.398438 -15.238281 16.890625 -15.40625 C 16.378906 -15.570312 15.785156 -15.675781 15.109375 -15.71875 C 14.429688 -15.769531 13.65625 -15.796875 12.78125 -15.796875 C 11.425781 -15.796875 10.300781 -15.757812 9.40625 -15.6875 C 8.507812 -15.625 7.796875 -15.492188 7.265625 -15.296875 C 6.742188 -15.097656 6.375 -14.828125 6.15625 -14.484375 C 5.945312 -14.140625 5.84375 -13.691406 5.84375 -13.140625 L 2.890625 -13.140625 C 2.890625 -14.078125 3.054688 -14.867188 3.390625 -15.515625 C 3.722656 -16.160156 4.273438 -16.6875 5.046875 -17.09375 C 5.828125 -17.5 6.847656 -17.789062 8.109375 -17.96875 C 9.367188 -18.15625 10.925781 -18.25 12.78125 -18.25 C 14.59375 -18.25 16.125 -18.097656 17.375 -17.796875 C 18.632812 -17.503906 19.648438 -16.984375 20.421875 -16.234375 C 21.203125 -15.484375 21.765625 -14.472656 22.109375 -13.203125 C 22.453125 -11.929688 22.625 -10.328125 22.625 -8.390625 L 22.625 0 L 19.65625 0 Z M 12.78125 -1.96875 C 14.082031 -1.96875 15.171875 -2.03125 16.046875 -2.15625 C 16.929688 -2.28125 17.640625 -2.460938 18.171875 -2.703125 C 18.710938 -2.953125 19.09375 -3.257812 19.3125 -3.625 C 19.539062 -4 19.65625 -4.4375 19.65625 -4.9375 C 19.65625 -5.425781 19.523438 -5.84375 19.265625 -6.1875 C 19.003906 -6.53125 18.566406 -6.8125 17.953125 -7.03125 C 17.335938 -7.25 16.523438 -7.40625 15.515625 -7.5 C 14.515625 -7.59375 13.273438 -7.640625 11.796875 -7.640625 C 10.316406 -7.640625 9.117188 -7.613281 8.203125 -7.5625 C 7.296875 -7.519531 6.59375 -7.40625 6.09375 -7.21875 C 5.601562 -7.03125 5.273438 -6.753906 5.109375 -6.390625 C 4.941406 -6.035156 4.859375 -5.550781 4.859375 -4.9375 C 4.859375 -4.320312 4.945312 -3.820312 5.125 -3.4375 C 5.300781 -3.050781 5.664062 -2.75 6.21875 -2.53125 C 6.78125 -2.3125 7.582031 -2.160156 8.625 -2.078125 C 9.664062 -2.003906 11.050781 -1.96875 12.78125 -1.96875 Z M 12.78125 -1.96875 "/></g></g></g><g fill="#ffffff" fill-opacity="1"><g transform="translate(649.852071, 485.091332)"><g><path d="M 1.484375 -8.84375 C 1.484375 -10.082031 1.539062 -11.171875 1.65625 -12.109375 C 1.78125 -13.054688 2 -13.878906 2.3125 -14.578125 C 2.632812 -15.285156 3.054688 -15.867188 3.578125 -16.328125 C 4.109375 -16.796875 4.773438 -17.175781 5.578125 -17.46875 C 6.390625 -17.757812 7.347656 -17.960938 8.453125 -18.078125 C 9.566406 -18.203125 10.863281 -18.265625 12.34375 -18.265625 C 14.320312 -18.265625 15.945312 -18.144531 17.21875 -17.90625 C 18.5 -17.664062 19.507812 -17.296875 20.25 -16.796875 C 20.988281 -16.296875 21.5 -15.660156 21.78125 -14.890625 C 22.070312 -14.128906 22.21875 -13.222656 22.21875 -12.171875 L 19.265625 -12.171875 C 19.265625 -12.546875 19.253906 -12.894531 19.234375 -13.21875 C 19.210938 -13.550781 19.132812 -13.851562 19 -14.125 C 18.875 -14.394531 18.671875 -14.632812 18.390625 -14.84375 C 18.117188 -15.050781 17.722656 -15.226562 17.203125 -15.375 C 16.691406 -15.519531 16.039062 -15.625 15.25 -15.6875 C 14.46875 -15.757812 13.5 -15.796875 12.34375 -15.796875 C 11.03125 -15.796875 9.921875 -15.75 9.015625 -15.65625 C 8.117188 -15.570312 7.378906 -15.421875 6.796875 -15.203125 C 6.210938 -14.992188 5.757812 -14.710938 5.4375 -14.359375 C 5.125 -14.003906 4.894531 -13.566406 4.75 -13.046875 C 4.601562 -12.535156 4.515625 -11.929688 4.484375 -11.234375 C 4.460938 -10.546875 4.453125 -9.75 4.453125 -8.84375 C 4.453125 -7.96875 4.460938 -7.1875 4.484375 -6.5 C 4.515625 -5.8125 4.601562 -5.210938 4.75 -4.703125 C 4.894531 -4.203125 5.125 -3.773438 5.4375 -3.421875 C 5.757812 -3.078125 6.210938 -2.796875 6.796875 -2.578125 C 7.378906 -2.359375 8.117188 -2.203125 9.015625 -2.109375 C 9.921875 -2.015625 11.03125 -1.96875 12.34375 -1.96875 C 13.5 -1.96875 14.46875 -2.007812 15.25 -2.09375 C 16.039062 -2.175781 16.691406 -2.296875 17.203125 -2.453125 C 17.722656 -2.609375 18.117188 -2.796875 18.390625 -3.015625 C 18.671875 -3.242188 18.875 -3.503906 19 -3.796875 C 19.132812 -4.085938 19.210938 -4.410156 19.234375 -4.765625 C 19.253906 -5.117188 19.265625 -5.503906 19.265625 -5.921875 L 22.21875 -5.921875 C 22.21875 -4.835938 22.070312 -3.898438 21.78125 -3.109375 C 21.5 -2.316406 20.988281 -1.664062 20.25 -1.15625 C 19.507812 -0.65625 18.5 -0.28125 17.21875 -0.03125 C 15.945312 0.21875 14.320312 0.34375 12.34375 0.34375 C 10.863281 0.34375 9.566406 0.28125 8.453125 0.15625 C 7.347656 0.03125 6.390625 -0.171875 5.578125 -0.453125 C 4.773438 -0.734375 4.109375 -1.101562 3.578125 -1.5625 C 3.054688 -2.03125 2.632812 -2.601562 2.3125 -3.28125 C 2 -3.957031 1.78125 -4.753906 1.65625 -5.671875 C 1.539062 -6.597656 1.484375 -7.65625 1.484375 -8.84375 Z M 1.484375 -8.84375 "/></g></g></g><g fill="#ffffff" fill-opacity="1"><g transform="translate(674.047489, 485.091332)"><g><path d="M 1.96875 -23.6875 L 4.9375 -23.6875 L 4.9375 -10.734375 L 5.921875 -10.734375 L 16.78125 -17.765625 L 21.21875 -17.765625 L 8.640625 -9.5 L 21.703125 0 L 17.265625 0 L 5.921875 -8.515625 L 4.9375 -8.515625 L 4.9375 0 L 1.96875 0 Z M 1.96875 -23.6875 "/></g></g></g><g fill="#ffffff" fill-opacity="1"><g transform="translate(695.760134, 485.091332)"><g><path d="M 2.953125 -17.765625 L 5.921875 -17.765625 L 5.921875 0 L 2.953125 0 Z M 5.921875 -20.71875 L 2.953125 -20.71875 L 2.953125 -23.6875 L 5.921875 -23.6875 Z M 5.921875 -20.71875 "/></g></g></g><g fill="#ffffff" fill-opacity="1"><g transform="translate(704.64258, 485.091332)"><g><path d="M 19.734375 0 L 19.734375 -9.875 C 19.734375 -10.96875 19.648438 -11.890625 19.484375 -12.640625 C 19.328125 -13.398438 19 -14.007812 18.5 -14.46875 C 18.007812 -14.9375 17.3125 -15.273438 16.40625 -15.484375 C 15.5 -15.691406 14.304688 -15.796875 12.828125 -15.796875 C 11.222656 -15.796875 9.910156 -15.675781 8.890625 -15.4375 C 7.867188 -15.195312 7.0625 -14.859375 6.46875 -14.421875 C 5.882812 -13.992188 5.484375 -13.476562 5.265625 -12.875 C 5.046875 -12.269531 4.9375 -11.597656 4.9375 -10.859375 L 4.9375 0 L 1.96875 0 L 1.96875 -17.765625 L 4.9375 -17.765625 L 4.9375 -14.796875 C 5.15625 -15.304688 5.460938 -15.742188 5.859375 -16.109375 C 6.253906 -16.472656 6.703125 -16.78125 7.203125 -17.03125 C 7.710938 -17.289062 8.257812 -17.5 8.84375 -17.65625 C 9.4375 -17.820312 10.023438 -17.945312 10.609375 -18.03125 C 11.191406 -18.113281 11.757812 -18.171875 12.3125 -18.203125 C 12.863281 -18.234375 13.363281 -18.25 13.8125 -18.25 C 15.132812 -18.25 16.269531 -18.164062 17.21875 -18 C 18.164062 -17.84375 18.96875 -17.601562 19.625 -17.28125 C 20.289062 -16.96875 20.820312 -16.570312 21.21875 -16.09375 C 21.625 -15.625 21.9375 -15.078125 22.15625 -14.453125 C 22.382812 -13.828125 22.535156 -13.128906 22.609375 -12.359375 C 22.679688 -11.597656 22.71875 -10.769531 22.71875 -9.875 L 22.703125 0 Z M 19.734375 0 "/></g></g></g><g fill="#ffffff" fill-opacity="1"><g transform="translate(729.331467, 485.091332)"><g><path d="M 12.328125 -15.796875 C 11.179688 -15.796875 10.1875 -15.757812 9.34375 -15.6875 C 8.507812 -15.613281 7.800781 -15.484375 7.21875 -15.296875 C 6.632812 -15.109375 6.160156 -14.847656 5.796875 -14.515625 C 5.429688 -14.191406 5.144531 -13.769531 4.9375 -13.25 C 4.738281 -12.738281 4.601562 -12.117188 4.53125 -11.390625 C 4.46875 -10.671875 4.4375 -9.820312 4.4375 -8.84375 C 4.4375 -7.882812 4.46875 -7.046875 4.53125 -6.328125 C 4.601562 -5.617188 4.738281 -5.007812 4.9375 -4.5 C 5.144531 -3.988281 5.429688 -3.566406 5.796875 -3.234375 C 6.160156 -2.910156 6.632812 -2.65625 7.21875 -2.46875 C 7.800781 -2.28125 8.507812 -2.148438 9.34375 -2.078125 C 10.1875 -2.003906 11.179688 -1.96875 12.328125 -1.96875 C 13.316406 -1.96875 14.195312 -1.988281 14.96875 -2.03125 C 15.738281 -2.082031 16.414062 -2.1875 17 -2.34375 C 17.59375 -2.507812 18.09375 -2.742188 18.5 -3.046875 C 18.90625 -3.347656 19.234375 -3.753906 19.484375 -4.265625 C 19.742188 -4.773438 19.929688 -5.40625 20.046875 -6.15625 C 20.171875 -6.914062 20.234375 -7.828125 20.234375 -8.890625 C 20.234375 -9.960938 20.171875 -10.878906 20.046875 -11.640625 C 19.929688 -12.398438 19.742188 -13.035156 19.484375 -13.546875 C 19.234375 -14.054688 18.90625 -14.457031 18.5 -14.75 C 18.09375 -15.050781 17.59375 -15.28125 17 -15.4375 C 16.414062 -15.59375 15.738281 -15.691406 14.96875 -15.734375 C 14.195312 -15.773438 13.316406 -15.796875 12.328125 -15.796875 Z M 23.1875 -2.46875 C 23.1875 -0.738281 22.988281 0.691406 22.59375 1.828125 C 22.207031 2.972656 21.582031 3.894531 20.71875 4.59375 C 19.851562 5.300781 18.734375 5.789062 17.359375 6.0625 C 15.984375 6.34375 14.304688 6.484375 12.328125 6.484375 C 10.484375 6.484375 8.929688 6.398438 7.671875 6.234375 C 6.410156 6.078125 5.394531 5.820312 4.625 5.46875 C 3.851562 5.113281 3.300781 4.65625 2.96875 4.09375 C 2.632812 3.53125 2.46875 2.847656 2.46875 2.046875 L 5.421875 2.046875 C 5.421875 2.453125 5.523438 2.78125 5.734375 3.03125 C 5.953125 3.289062 6.320312 3.492188 6.84375 3.640625 C 7.363281 3.785156 8.066406 3.882812 8.953125 3.9375 C 9.847656 4 10.972656 4.03125 12.328125 4.03125 C 13.816406 4.03125 15.0625 3.972656 16.0625 3.859375 C 17.070312 3.753906 17.882812 3.5 18.5 3.09375 C 19.113281 2.695312 19.554688 2.09375 19.828125 1.28125 C 20.097656 0.46875 20.234375 -0.613281 20.234375 -1.96875 C 20.085938 -1.726562 19.859375 -1.460938 19.546875 -1.171875 C 19.234375 -0.878906 18.773438 -0.609375 18.171875 -0.359375 C 17.566406 -0.117188 16.789062 0.0820312 15.84375 0.25 C 14.90625 0.414062 13.734375 0.5 12.328125 0.5 C 10.359375 0.5 8.6875 0.347656 7.3125 0.046875 C 5.9375 -0.242188 4.816406 -0.742188 3.953125 -1.453125 C 3.085938 -2.160156 2.457031 -3.113281 2.0625 -4.3125 C 1.675781 -5.519531 1.484375 -7.03125 1.484375 -8.84375 C 1.484375 -10.695312 1.675781 -12.226562 2.0625 -13.4375 C 2.457031 -14.65625 3.085938 -15.617188 3.953125 -16.328125 C 4.816406 -17.035156 5.9375 -17.53125 7.3125 -17.8125 C 8.6875 -18.101562 10.359375 -18.25 12.328125 -18.25 C 13.734375 -18.25 14.90625 -18.175781 15.84375 -18.03125 C 16.789062 -17.894531 17.566406 -17.71875 18.171875 -17.5 C 18.773438 -17.28125 19.234375 -17.046875 19.546875 -16.796875 C 19.859375 -16.546875 20.085938 -16.316406 20.234375 -16.109375 L 20.234375 -17.765625 L 23.1875 -17.765625 Z M 23.1875 -2.46875 "/></g></g></g><g fill="#ffffff" fill-opacity="1"><g transform="translate(754.498397, 485.091332)"><g/></g></g><g fill="#ffffff" fill-opacity="1"><g transform="translate(761.406966, 485.091332)"><g><path d="M 28.625 -23.6875 L 28.625 -21.21875 L 16.78125 -21.21875 L 16.78125 0 L 13.8125 0 L 13.8125 -21.21875 L 1.96875 -21.21875 L 1.96875 -23.6875 Z M 28.625 -23.6875 "/></g></g></g><g fill="#ffffff" fill-opacity="1"><g transform="translate(792.002068, 485.091332)"><g><path d="M 12.328125 0.34375 C 10.359375 0.34375 8.6875 0.207031 7.3125 -0.0625 C 5.9375 -0.34375 4.816406 -0.816406 3.953125 -1.484375 C 3.085938 -2.148438 2.457031 -3.039062 2.0625 -4.15625 C 1.675781 -5.28125 1.484375 -6.691406 1.484375 -8.390625 C 1.484375 -10.328125 1.675781 -11.929688 2.0625 -13.203125 C 2.457031 -14.472656 3.085938 -15.484375 3.953125 -16.234375 C 4.816406 -16.984375 5.9375 -17.503906 7.3125 -17.796875 C 8.6875 -18.097656 10.359375 -18.25 12.328125 -18.25 C 13.742188 -18.25 14.96875 -18.144531 16 -17.9375 C 17.03125 -17.738281 17.910156 -17.441406 18.640625 -17.046875 C 19.378906 -16.660156 19.976562 -16.1875 20.4375 -15.625 C 20.894531 -15.070312 21.253906 -14.488281 21.515625 -13.875 C 21.773438 -13.269531 21.953125 -12.554688 22.046875 -11.734375 C 22.148438 -10.910156 22.203125 -10.039062 22.203125 -9.125 L 21.953125 -8.140625 L 4.4375 -8.140625 C 4.4375 -6.785156 4.570312 -5.671875 4.84375 -4.796875 C 5.113281 -3.929688 5.554688 -3.296875 6.171875 -2.890625 C 6.785156 -2.492188 7.59375 -2.238281 8.59375 -2.125 C 9.601562 -2.019531 10.847656 -1.96875 12.328125 -1.96875 C 13.691406 -1.96875 14.816406 -2.003906 15.703125 -2.078125 C 16.585938 -2.160156 17.289062 -2.3125 17.8125 -2.53125 C 18.34375 -2.75 18.710938 -3.050781 18.921875 -3.4375 C 19.140625 -3.820312 19.25 -4.320312 19.25 -4.9375 L 22.203125 -4.9375 C 22.203125 -3.976562 22.035156 -3.160156 21.703125 -2.484375 C 21.367188 -1.816406 20.816406 -1.273438 20.046875 -0.859375 C 19.273438 -0.441406 18.257812 -0.140625 17 0.046875 C 15.738281 0.242188 14.179688 0.34375 12.328125 0.34375 Z M 12.328125 -15.796875 C 11.347656 -15.796875 10.46875 -15.773438 9.6875 -15.734375 C 8.914062 -15.691406 8.238281 -15.597656 7.65625 -15.453125 C 7.070312 -15.316406 6.570312 -15.117188 6.15625 -14.859375 C 5.75 -14.597656 5.421875 -14.289062 5.171875 -13.9375 C 4.921875 -13.582031 4.734375 -13.082031 4.609375 -12.4375 C 4.492188 -11.789062 4.4375 -11.015625 4.4375 -10.109375 L 19.25 -10.109375 C 19.25 -11.316406 19.117188 -12.257812 18.859375 -12.9375 C 18.597656 -13.625 18.191406 -14.1875 17.640625 -14.625 C 17.085938 -15.070312 16.375 -15.378906 15.5 -15.546875 C 14.625 -15.710938 13.566406 -15.796875 12.328125 -15.796875 Z M 12.328125 -15.796875 "/></g></g></g><g fill="#ffffff" fill-opacity="1"><g transform="translate(816.18206, 485.091332)"><g><path d="M 1.484375 -8.84375 C 1.484375 -10.082031 1.539062 -11.171875 1.65625 -12.109375 C 1.78125 -13.054688 2 -13.878906 2.3125 -14.578125 C 2.632812 -15.285156 3.054688 -15.867188 3.578125 -16.328125 C 4.109375 -16.796875 4.773438 -17.175781 5.578125 -17.46875 C 6.390625 -17.757812 7.347656 -17.960938 8.453125 -18.078125 C 9.566406 -18.203125 10.863281 -18.265625 12.34375 -18.265625 C 14.320312 -18.265625 15.945312 -18.144531 17.21875 -17.90625 C 18.5 -17.664062 19.507812 -17.296875 20.25 -16.796875 C 20.988281 -16.296875 21.5 -15.660156 21.78125 -14.890625 C 22.070312 -14.128906 22.21875 -13.222656 22.21875 -12.171875 L 19.265625 -12.171875 C 19.265625 -12.546875 19.253906 -12.894531 19.234375 -13.21875 C 19.210938 -13.550781 19.132812 -13.851562 19 -14.125 C 18.875 -14.394531 18.671875 -14.632812 18.390625 -14.84375 C 18.117188 -15.050781 17.722656 -15.226562 17.203125 -15.375 C 16.691406 -15.519531 16.039062 -15.625 15.25 -15.6875 C 14.46875 -15.757812 13.5 -15.796875 12.34375 -15.796875 C 11.03125 -15.796875 9.921875 -15.75 9.015625 -15.65625 C 8.117188 -15.570312 7.378906 -15.421875 6.796875 -15.203125 C 6.210938 -14.992188 5.757812 -14.710938 5.4375 -14.359375 C 5.125 -14.003906 4.894531 -13.566406 4.75 -13.046875 C 4.601562 -12.535156 4.515625 -11.929688 4.484375 -11.234375 C 4.460938 -10.546875 4.453125 -9.75 4.453125 -8.84375 C 4.453125 -7.96875 4.460938 -7.1875 4.484375 -6.5 C 4.515625 -5.8125 4.601562 -5.210938 4.75 -4.703125 C 4.894531 -4.203125 5.125 -3.773438 5.4375 -3.421875 C 5.757812 -3.078125 6.210938 -2.796875 6.796875 -2.578125 C 7.378906 -2.359375 8.117188 -2.203125 9.015625 -2.109375 C 9.921875 -2.015625 11.03125 -1.96875 12.34375 -1.96875 C 13.5 -1.96875 14.46875 -2.007812 15.25 -2.09375 C 16.039062 -2.175781 16.691406 -2.296875 17.203125 -2.453125 C 17.722656 -2.609375 18.117188 -2.796875 18.390625 -3.015625 C 18.671875 -3.242188 18.875 -3.503906 19 -3.796875 C 19.132812 -4.085938 19.210938 -4.410156 19.234375 -4.765625 C 19.253906 -5.117188 19.265625 -5.503906 19.265625 -5.921875 L 22.21875 -5.921875 C 22.21875 -4.835938 22.070312 -3.898438 21.78125 -3.109375 C 21.5 -2.316406 20.988281 -1.664062 20.25 -1.15625 C 19.507812 -0.65625 18.5 -0.28125 17.21875 -0.03125 C 15.945312 0.21875 14.320312 0.34375 12.34375 0.34375 C 10.863281 0.34375 9.566406 0.28125 8.453125 0.15625 C 7.347656 0.03125 6.390625 -0.171875 5.578125 -0.453125 C 4.773438 -0.734375 4.109375 -1.101562 3.578125 -1.5625 C 3.054688 -2.03125 2.632812 -2.601562 2.3125 -3.28125 C 2 -3.957031 1.78125 -4.753906 1.65625 -5.671875 C 1.539062 -6.597656 1.484375 -7.65625 1.484375 -8.84375 Z M 1.484375 -8.84375 "/></g></g></g><g fill="#ffffff" fill-opacity="1"><g transform="translate(840.377478, 485.091332)"><g><path d="M 19.734375 0 L 19.734375 -10.015625 C 19.734375 -11.085938 19.648438 -11.988281 19.484375 -12.71875 C 19.328125 -13.457031 19 -14.050781 18.5 -14.5 C 18.007812 -14.957031 17.3125 -15.285156 16.40625 -15.484375 C 15.5 -15.691406 14.304688 -15.796875 12.828125 -15.796875 C 11.222656 -15.796875 9.910156 -15.675781 8.890625 -15.4375 C 7.867188 -15.207031 7.0625 -14.882812 6.46875 -14.46875 C 5.882812 -14.050781 5.484375 -13.550781 5.265625 -12.96875 C 5.046875 -12.382812 4.9375 -11.734375 4.9375 -11.015625 L 4.9375 0 L 1.96875 0 L 1.96875 -23.6875 L 4.9375 -23.6875 L 4.9375 -14.953125 C 5.144531 -15.441406 5.4375 -15.859375 5.8125 -16.203125 C 6.195312 -16.554688 6.632812 -16.851562 7.125 -17.09375 C 7.625 -17.34375 8.160156 -17.539062 8.734375 -17.6875 C 9.316406 -17.84375 9.898438 -17.957031 10.484375 -18.03125 C 11.078125 -18.113281 11.660156 -18.171875 12.234375 -18.203125 C 12.804688 -18.234375 13.332031 -18.25 13.8125 -18.25 C 15.132812 -18.25 16.269531 -18.171875 17.21875 -18.015625 C 18.164062 -17.859375 18.96875 -17.625 19.625 -17.3125 C 20.289062 -17 20.820312 -16.609375 21.21875 -16.140625 C 21.625 -15.679688 21.9375 -15.144531 22.15625 -14.53125 C 22.382812 -13.914062 22.535156 -13.226562 22.609375 -12.46875 C 22.679688 -11.71875 22.71875 -10.898438 22.71875 -10.015625 L 22.703125 0 Z M 19.734375 0 "/></g></g></g></svg>