<?xml version="1.0" ?><svg width="128px" height="128px" viewBox="0 0 128 128" id="Layer_1" style="enable-background:new 0 0 128 128;" version="1.1" xml:space="preserve" xmlns="http://www.w3.org/2000/svg" xmlns:xlink="http://www.w3.org/1999/xlink"><style type="text/css">
	.st0{fill:#581166;}
	.st1{fill:#E83A3A;}
	.st2{fill:#FF5855;}
	.st3{opacity:0.5;}
	.st4{fill:#FFDA8E;}
	.st5{fill:#FFFFFF;}
	.st6{fill:#EABA65;}
	.st7{fill:#E6E6E6;}
	.st8{fill:#460A54;}
	.st9{fill:none;}
	.st10{fill:none;stroke:#581166;stroke-width:2;stroke-linecap:round;stroke-linejoin:round;stroke-miterlimit:10;}
	.st11{fill:#F2F2F2;}
</style><g><g><g><g><path class="st2" d="M113.5,40.6v52c0,2.1-1.7,3.7-3.7,3.7H18.1c-2.1,0-3.7-1.7-3.7-3.7v-5.4c0.6,1.1,1.8,1.8,3.2,1.8h91.6      c2.1,0,3.7-1.7,3.7-3.7V38.7C113.3,39.3,113.5,39.9,113.5,40.6z"/></g></g></g><g class="st3"><g><g><g><path class="st0" d="M113.5,40.6v52c0,2.1-1.7,3.7-3.7,3.7H18.1c-2.1,0-3.7-1.7-3.7-3.7v-5.4c0.6,1.1,1.8,1.8,3.2,1.8h91.6       c2.1,0,3.7-1.7,3.7-3.7V38.7C113.3,39.3,113.5,39.9,113.5,40.6z"/></g></g></g></g><g><g><g><path class="st2" d="M112.9,38.7v46.6c0,2.1-1.7,3.7-3.7,3.7H17.6c-1.4,0-2.6-0.7-3.2-1.8V40.6c0-2.1,1.7-3.7,3.7-3.7h91.6      C111.1,36.9,112.3,37.6,112.9,38.7z"/></g></g></g><g><g><g><path class="st0" d="M109.7,98.2H18.1c-3.1,0-5.6-2.5-5.6-5.6v-52c0-3.1,2.5-5.6,5.6-5.6h91.6c3.1,0,5.6,2.5,5.6,5.6v52      C115.4,95.7,112.8,98.2,109.7,98.2z M18.1,38.8c-1,0-1.9,0.8-1.9,1.9v52c0,1,0.8,1.9,1.9,1.9h91.6c1,0,1.9-0.8,1.9-1.9v-52      c0-1-0.8-1.9-1.9-1.9H18.1z"/></g></g></g><g><g><g><g><path class="st0" d="M62.9,73.7H43.5c-1,0-1.9-0.8-1.9-1.9s0.8-1.9,1.9-1.9h19.4c1,0,1.9,0.8,1.9,1.9S63.9,73.7,62.9,73.7z"/></g></g></g><g><g><g><path class="st0" d="M38.1,73.7H23.9c-1,0-1.9-0.8-1.9-1.9s0.8-1.9,1.9-1.9h14.2c1,0,1.9,0.8,1.9,1.9S39.2,73.7,38.1,73.7z"/></g></g></g></g><g><g><g><g><path class="st0" d="M42.9,81.9H24c-1,0-1.9-0.8-1.9-1.9c0-1,0.8-1.9,1.9-1.9h18.9c1,0,1.9,0.8,1.9,1.9       C44.8,81.1,43.9,81.9,42.9,81.9z"/></g></g></g></g><g><g><g><path class="st5" d="M28.8,56.1L28.8,56.1l1.7-11.2h2l-2.1,13.7h-3.2L25,44.9h2.2L28.8,56.1z"/></g></g><g><g><path class="st5" d="M33.4,44.9h2.2v13.7h-2.2V44.9z"/></g></g><g><g><path class="st5" d="M40,44.7c2.1,0,3.2,1.3,3.2,3.4v0.4h-2V48c0-1-0.4-1.4-1.1-1.4c-0.7,0-1.1,0.4-1.1,1.4c0,1,0.4,1.7,1.8,3      c1.8,1.6,2.4,2.7,2.4,4.3c0,2.2-1.1,3.4-3.2,3.4c-2.1,0-3.2-1.3-3.2-3.4v-0.8h2v1c0,1,0.4,1.3,1.1,1.3c0.7,0,1.1-0.4,1.1-1.3      c0-1-0.4-1.7-1.8-3c-1.8-1.6-2.4-2.7-2.4-4.3C36.9,46,37.9,44.7,40,44.7z"/></g></g><g><g><path class="st5" d="M51.4,58.6h-2.2l-0.4-2.5h-2.6l-0.4,2.5h-2l2.2-13.7h3.2L51.4,58.6z M46.5,54.3h2.1l-1-6.9h0L46.5,54.3z"/></g></g></g><g><g><g><g><path class="st4" d="M101.8,60.8H83.4c-1,0-1.9-0.8-1.9-1.9V47.2c0-1,0.8-1.9,1.9-1.9h18.4c1,0,1.9,0.8,1.9,1.9v11.7       C103.7,59.9,102.8,60.8,101.8,60.8z"/></g></g></g><g><g><g><path class="st0" d="M101.8,62.6H83.4c-2.1,0-3.7-1.7-3.7-3.7V47.2c0-2.1,1.7-3.7,3.7-3.7h18.4c2.1,0,3.7,1.7,3.7,3.7v11.7       C105.6,60.9,103.9,62.6,101.8,62.6z M101.8,58.9v1.9V58.9L101.8,58.9L101.8,58.9z M83.4,47.2v11.7h18.4l0-11.7H83.4z"/></g></g></g></g></g></svg>