<?xml version="1.0" ?><svg width="64px" height="64px" viewBox="0 0 64 64" id="Layer_1_1_" style="enable-background:new 0 0 64 64;" version="1.1" xml:space="preserve" xmlns="http://www.w3.org/2000/svg" xmlns:xlink="http://www.w3.org/1999/xlink"><g><g><path d="M32,1c-8.271,0-15,6.729-15,15v25h1l9-3v-3h0.663c-2.77-1.337-4.834-3.904-5.462-7H22    c-2.209,0-4-1.791-4-4c0-2.209,1.791-4,4-4v-1h2.757c2.716,0,5.322-1.079,7.243-3c1.921,1.921,4.526,3,7.243,3H42v1    c2.209,0,4,1.791,4,4c0,2.209-1.791,4-4,4h-0.201c-0.629,3.096-2.693,5.663-5.462,7H37v3l9,3h1V16C47,7.729,40.271,1,32,1z" style="fill:#00F4CB;"/></g><g><path d="M48.214,40.684L38,37.279v-2.072c2.21-1.445,3.864-3.663,4.589-6.267C45.066,28.645,47,26.555,47,24    c0-2.414-1.721-4.434-4-4.899V16h-2v2h-1.758c-2.469,0-4.789-0.961-6.535-2.707L32,14.586l-0.707,0.707    C29.547,17.039,27.227,18,24.758,18H23v-2h-2v3.101c-2.279,0.465-4,2.484-4,4.899c0,2.555,1.934,4.645,4.411,4.94    c0.724,2.605,2.379,4.822,4.589,6.267v2.072l-10.214,3.404C12.924,41.638,11,44.307,11,47.325V63h42V47.325    C53,44.307,51.076,41.638,48.214,40.684z M26.73,39.144l3.701,3.701l-3.638,2.426l-0.738-5.901L26.73,39.144z M37.27,39.144    l0.676,0.225l-0.738,5.901l-3.638-2.426L37.27,39.144z M45,24c0,1.317-0.859,2.427-2.042,2.829C42.979,26.554,43,26.28,43,26    v-4.816C44.161,21.598,45,22.698,45,24z M41,20v4h-6v-4h4.242H41z M32,17.357c0.523,0.442,1.081,0.829,1.665,1.164    C33.26,18.888,33,19.412,33,20v1h-2v-1c0-0.588-0.26-1.112-0.665-1.478C30.919,18.186,31.477,17.799,32,17.357z M24.758,20H29v4    h-6v-4H24.758z M19,24c0-1.302,0.839-2.402,2-2.816V26c0,0.28,0.021,0.554,0.042,0.829C19.859,26.427,19,25.317,19,24z M23,26h6    c1.103,0,2-0.897,2-2v-1h2v1c0,1.103,0.897,2,2,2h6c0,4.962-4.037,9-9,9S23,30.962,23,26z M32,37c1.412,0,2.758-0.277,4-0.764    v1.35l-4,4l-4-4v-1.35C29.242,36.723,30.588,37,32,37z M51,61h-6v-2.586c1.29-1.322,2-3.063,2-4.914s-0.71-3.592-2-4.914V47h-2    v2.414l0.525,0.525C44.477,50.891,45,52.155,45,53.5s-0.523,2.609-1.475,3.561L43,57.586V61H21v-3.414l-0.525-0.525    C19.523,56.109,19,54.845,19,53.5s0.523-2.609,1.475-3.561L21,49.414V47h-2v1.586c-1.29,1.322-2,3.063-2,4.914s0.71,3.592,2,4.914    V61h-6V47.325c0-2.156,1.374-4.062,3.419-4.744l7.7-2.567l1.089,8.715l6.665-4.443L32,44.414l0.127-0.127l6.665,4.443l1.089-8.715    l7.7,2.567C49.626,43.263,51,45.169,51,47.325V61z"/><circle cx="26" cy="22" r="1"/><circle cx="38" cy="22" r="1"/><path d="M36,28h-2c0,1.103-0.897,2-2,2s-2-0.897-2-2h-2c0,2.206,1.794,4,4,4S36,30.206,36,28z"/><rect height="2" width="2" x="31" y="49"/><rect height="2" width="2" x="31" y="53"/><rect height="2" width="2" x="31" y="57"/></g></g></svg>