<svg id="visual" viewBox="0 0 960 540" width="100%" height="100%" xmlns="http://www.w3.org/2000/svg" xmlns:xlink="http://www.w3.org/1999/xlink" version="1.1"><rect x="0" y="0" width="960" height="540" fill="#ACECEF"></rect><path d="M0 170L192 187L384 171L576 143L768 195L960 150L960 541L768 541L576 541L384 541L192 541L0 541Z" fill="#80D6DA"></path><path d="M0 219L192 235L384 256L576 247L768 226L960 245L960 541L768 541L576 541L384 541L192 541L0 541Z" fill="#67CACF"></path><path d="M0 296L192 301L384 308L576 330L768 330L960 295L960 541L768 541L576 541L384 541L192 541L0 541Z" fill="#35A8AE"></path><path d="M0 400L192 371L384 368L576 411L768 378L960 384L960 541L768 541L576 541L384 541L192 541L0 541Z" fill="#219399"></path><path d="M0 448L192 470L384 475L576 446L768 466L960 454L960 541L768 541L576 541L384 541L192 541L0 541Z" fill="#0B6E73"></path></svg>


