<svg width="81.765px" height="81.765px" viewBox="0 -2.33 81.765 81.765" xmlns="http://www.w3.org/2000/svg">
  <g id="_3" data-name="3" transform="translate(-558.617 -111.088)">
    <circle id="Ellipse_2" data-name="Ellipse 2" cx="5.828" cy="5.828" r="5.828" transform="translate(593.784 173.787)" fill="#ffc97a"/>
    <path id="Path_16" data-name="Path 16" d="M599.611,188.192a8.577,8.577,0,1,1,8.578-8.578A8.587,8.587,0,0,1,599.611,188.192Zm0-11.655a3.077,3.077,0,1,0,3.078,3.077A3.081,3.081,0,0,0,599.611,176.537Z" fill="#151515"/>
    <path id="Path_17" data-name="Path 17" d="M578.6,160.733l1.12-12.181a19.736,19.736,0,0,1,19.653-17.928h.362a19.736,19.736,0,0,1,19.637,17.76l1.245,12.382Z" fill="#ffc97a"/>
    <path id="Path_18" data-name="Path 18" d="M620.62,163.517h0l-42.016-.034a2.749,2.749,0,0,1-2.737-3l1.12-12.181a22.381,22.381,0,0,1,22.391-20.426h.362a22.419,22.419,0,0,1,22.373,20.235l1.212,12.051a2.753,2.753,0,0,1-2.683,3.357A.13.13,0,0,1,620.62,163.517Zm-39-5.531,35.961.028-.94-9.355a16.935,16.935,0,0,0-16.9-15.285h-.362a16.906,16.906,0,0,0-16.914,15.43Z" fill="#151515"/>
    <path id="Path_19" data-name="Path 19" d="M623.469,176.522H575.441a3.668,3.668,0,0,1-3.6-4.383l1.368-6.878a5.61,5.61,0,0,1,5.5-4.517h41.4a5.612,5.612,0,0,1,5.491,4.457l1.451,6.9A3.668,3.668,0,0,1,623.469,176.522Z" fill="#fbbf77"/>
    <path id="Path_20" data-name="Path 20" d="M623.469,179.271H575.441a6.416,6.416,0,0,1-6.294-7.668l1.369-6.878a8.38,8.38,0,0,1,8.2-6.731h41.4a8.4,8.4,0,0,1,8.183,6.642l1.45,6.9a6.416,6.416,0,0,1-6.28,7.737Zm-44.753-15.777a2.867,2.867,0,0,0-2.806,2.3l-1.368,6.879a.916.916,0,0,0,.9,1.1h48.028a.915.915,0,0,0,.9-1.1l-1.45-6.9a2.873,2.873,0,0,0-2.8-2.273Z" fill="#151515"/>
    <g id="Group_10" data-name="Group 10">
      <line id="Line_7" data-name="Line 7" y1="4.482" x2="4.482" transform="translate(630.158 141.247)" fill="#d0d0dc"/>
      <path id="Path_21" data-name="Path 21" d="M630.158,148.479a2.751,2.751,0,0,1-1.944-4.7L632.7,139.3a2.75,2.75,0,0,1,3.889,3.889l-4.482,4.482A2.744,2.744,0,0,1,630.158,148.479Z" fill="#151515"/>
    </g>
    <g id="Group_11" data-name="Group 11">
      <line id="Line_8" data-name="Line 8" x1="4.482" y1="4.482" transform="translate(564.27 141.247)" fill="#d0d0dc"/>
      <path id="Path_22" data-name="Path 22" d="M568.752,148.479a2.74,2.74,0,0,1-1.944-.806l-4.483-4.482a2.75,2.75,0,1,1,3.889-3.889l4.482,4.482a2.751,2.751,0,0,1-1.944,4.7Z" fill="#151515"/>
    </g>
    <g id="Group_12" data-name="Group 12">
      <line id="Line_9" data-name="Line 9" x1="3.082" y2="3.082" transform="translate(561.367 157.696)" fill="#d0d0dc"/>
      <path id="Path_23" data-name="Path 23" d="M561.367,163.528a2.751,2.751,0,0,1-1.944-4.7l3.082-3.082a2.75,2.75,0,0,1,3.889,3.89l-3.082,3.082A2.748,2.748,0,0,1,561.367,163.528Z" fill="#151515"/>
    </g>
    <g id="Group_13" data-name="Group 13">
      <line id="Line_10" data-name="Line 10" x2="3.082" y2="3.082" transform="translate(634.551 157.696)" fill="#d0d0dc"/>
      <path id="Path_24" data-name="Path 24" d="M637.633,163.528a2.748,2.748,0,0,1-1.945-.8l-3.082-3.082a2.75,2.75,0,0,1,3.889-3.89l3.082,3.082a2.751,2.751,0,0,1-1.944,4.7Z" fill="#151515"/>
    </g>
    <path id="Path_25" data-name="Path 25" d="M619.4,136.347l-15.62-7.111v-8.09l15.64-7a3.471,3.471,0,0,1,4.889,3.167l-.03.08a22.5,22.5,0,0,0,0,15.717l.03.079A3.471,3.471,0,0,1,619.4,136.347Z" fill="#ee6159"/>
    <path id="Path_26" data-name="Path 26" d="M620.839,139.413a6.193,6.193,0,0,1-2.578-.563l-15.62-7.111a2.752,2.752,0,0,1-1.611-2.5v-8.09a2.752,2.752,0,0,1,1.627-2.511l15.64-7a6.213,6.213,0,0,1,8.762,5.678,2.768,2.768,0,0,1-.169.949,19.815,19.815,0,0,0-.034,13.886,3.229,3.229,0,0,1,.2,1.04A6.229,6.229,0,0,1,620.839,139.413ZM606.53,127.466l14.01,6.378a.715.715,0,0,0,.3.069.75.75,0,0,0,.657-.422,25.3,25.3,0,0,1,0-16.482.747.747,0,0,0-.656-.421.706.706,0,0,0-.295.067l-14.014,6.273Z" fill="#151515"/>
    <path id="Path_27" data-name="Path 27" d="M579.823,114.154l15.62,7.111v8.09l-15.64,7a3.471,3.471,0,0,1-4.889-3.168l.03-.079a22.5,22.5,0,0,0,0-15.717l-.03-.079A3.471,3.471,0,0,1,579.823,114.154Z" fill="#ee6159"/>
    <path id="Path_28" data-name="Path 28" d="M578.384,139.413a6.229,6.229,0,0,1-6.22-6.225,2.75,2.75,0,0,1,.18-.978,19.81,19.81,0,0,0,.023-13.858,3.25,3.25,0,0,1-.2-1.039,6.214,6.214,0,0,1,8.8-5.662l15.62,7.111a2.753,2.753,0,0,1,1.61,2.5v8.09a2.75,2.75,0,0,1-1.627,2.511l-15.64,7A6.177,6.177,0,0,1,578.384,139.413Zm-.656-5.919a.75.75,0,0,0,.656.419.71.71,0,0,0,.3-.067l14.014-6.273v-4.538l-14.009-6.378a.723.723,0,0,0-.3-.069.75.75,0,0,0-.656.419A25.273,25.273,0,0,1,577.728,133.494Z" fill="#151515"/>
    <circle id="Ellipse_3" data-name="Ellipse 3" cx="5.244" cy="5.244" r="5.244" transform="translate(594.367 120.006)" fill="#ee6159"/>
    <path id="Path_29" data-name="Path 29" d="M599.611,133.245a7.994,7.994,0,1,1,7.994-7.995A8,8,0,0,1,599.611,133.245Zm0-10.489a2.495,2.495,0,1,0,2.494,2.494A2.5,2.5,0,0,0,599.611,122.756Z" fill="#151515"/>
  </g>
</svg>
